<?xml version="1.0" encoding="UTF-8" standalone="no"?>
<!-- Created with Inkscape (http://www.inkscape.org/) -->

<svg
   width="300"
   height="100"
   viewBox="0 0 79.374998 26.458333"
   version="1.1"
   id="svg5"
   xml:space="preserve"
   inkscape:version="1.2.2 (b0a8486541, 2022-12-01)"
   sodipodi:docname="battle-trigger.svg"
   inkscape:export-filename="battle-trigger.png"
   inkscape:export-xdpi="96"
   inkscape:export-ydpi="96"
   xmlns:inkscape="http://www.inkscape.org/namespaces/inkscape"
   xmlns:sodipodi="http://sodipodi.sourceforge.net/DTD/sodipodi-0.dtd"
   xmlns="http://www.w3.org/2000/svg"
   xmlns:svg="http://www.w3.org/2000/svg"><sodipodi:namedview
     id="namedview7"
     pagecolor="#ffffff"
     bordercolor="#666666"
     borderopacity="1.0"
     inkscape:showpageshadow="2"
     inkscape:pageopacity="0.0"
     inkscape:pagecheckerboard="0"
     inkscape:deskcolor="#d1d1d1"
     inkscape:document-units="px"
     showgrid="false"
     showguides="true"
     inkscape:zoom="4.7572176"
     inkscape:cx="104.68304"
     inkscape:cy="90.07366"
     inkscape:window-width="3438"
     inkscape:window-height="1438"
     inkscape:window-x="1920"
     inkscape:window-y="0"
     inkscape:window-maximized="1"
     inkscape:current-layer="layer1"><sodipodi:guide
       position="26.421952,27.462549"
       orientation="1,0"
       id="guide132"
       inkscape:locked="false" /></sodipodi:namedview><defs
     id="defs2" /><g
     inkscape:label="Camada 1"
     inkscape:groupmode="layer"
     id="layer1"><rect
       fill="none"
       height="22.507746"
       width="22.507746"
       id="rect240"
       x="2.0275671"
       y="1.6097829"
       style="stroke-width:0.0879209" /><path
       d="m 21.855435,4.1709792 a 0.71215913,0.71215913 0 0 0 -0.501149,-0.202218 v 0 l -5.609352,0.017584 A 0.71215913,0.71215913 0 0 0 15.199825,4.2413159 L 9.0101943,11.732175 8.280451,11.002431 a 1.4155262,1.4155262 0 0 0 -1.9870119,0 L 5.176844,12.119027 a 1.397942,1.397942 0 0 0 0,1.987012 l 1.8375464,1.837546 -2.6376264,2.628834 a 1.4243183,1.4243183 0 0 0 0,1.995804 l 1.0814268,1.081427 a 1.4331103,1.4331103 0 0 0 1.995804,0 l 2.6288342,-2.637626 1.837547,1.837546 a 1.4155262,1.4155262 0 0 0 1.987012,0 l 1.116595,-1.116595 a 1.397942,1.397942 0 0 0 0,-1.987012 L 14.29424,17.01622 21.785098,10.82659 a 0.71215913,0.71215913 0 0 0 0.254971,-0.54511 l 0.01758,-5.6093518 a 0.71215913,0.71215913 0 0 0 -0.202218,-0.501149 z m -1.2221,5.7764019 -7.341394,6.0665409 -1.142971,-1.142972 4.782896,-4.774104 A 0.71215913,0.71215913 0 0 0 15.929568,9.0945485 l -4.774104,4.7828955 -1.142972,-1.142971 6.066541,-7.3413936 4.571886,-0.017584 z"
       id="path242"
       style="fill:#008000;stroke-width:0.52916666;stroke:#ececec;stroke-dasharray:none" /><path
       d="m 48.313768,4.1709792 a 0.71215913,0.71215913 0 0 0 -0.501149,-0.202218 v 0 l -5.609352,0.017584 a 0.71215913,0.71215913 0 0 0 -0.545108,0.2549707 l -6.189632,7.4908591 -0.729743,-0.729744 a 1.4155262,1.4155262 0 0 0 -1.987012,0 l -1.116595,1.116596 a 1.397942,1.397942 0 0 0 0,1.987012 l 1.837546,1.837546 -2.637626,2.628834 a 1.4243183,1.4243183 0 0 0 0,1.995804 l 1.081427,1.081427 a 1.4331103,1.4331103 0 0 0 1.995804,0 l 2.628834,-2.637626 1.837548,1.837546 a 1.4155262,1.4155262 0 0 0 1.987012,0 l 1.116595,-1.116595 a 1.397942,1.397942 0 0 0 0,-1.987012 l -0.729743,-0.729743 7.490857,-6.18963 a 0.71215913,0.71215913 0 0 0 0.254972,-0.54511 l 0.01758,-5.6093518 a 0.71215913,0.71215913 0 0 0 -0.202217,-0.501149 z m -1.2221,5.7764015 -7.341394,6.0665413 -1.142971,-1.142972 4.782896,-4.774104 A 0.71215913,0.71215913 0 0 0 42.387902,9.0945487 l -4.774105,4.7828953 -1.142972,-1.142971 6.066541,-7.3413936 4.571886,-0.017584 z"
       id="path242-3"
       style="fill:#d4aa00;stroke-width:0.52916666;stroke-dasharray:none;stroke:#f2f2f2" /><path
       d="m 74.772101,4.1709792 a 0.71215913,0.71215913 0 0 0 -0.501149,-0.202218 v 0 L 68.6616,3.9863452 A 0.71215913,0.71215913 0 0 0 68.116492,4.2413159 L 61.92686,11.732175 61.197117,11.002431 a 1.4155262,1.4155262 0 0 0 -1.987012,0 l -1.116595,1.116596 a 1.397942,1.397942 0 0 0 0,1.987012 l 1.837546,1.837546 -2.637626,2.628834 a 1.4243183,1.4243183 0 0 0 0,1.995804 l 1.081427,1.081427 a 1.4331103,1.4331103 0 0 0 1.995804,0 l 2.628834,-2.637626 1.837548,1.837546 a 1.4155262,1.4155262 0 0 0 1.987012,0 l 1.116595,-1.116595 a 1.397942,1.397942 0 0 0 0,-1.987012 l -0.729743,-0.729743 7.490857,-6.18963 a 0.71215913,0.71215913 0 0 0 0.254972,-0.54511 l 0.01758,-5.6093518 a 0.71215913,0.71215913 0 0 0 -0.202217,-0.501149 z m -1.2221,5.7764012 -7.341394,6.0665416 -1.142971,-1.142972 4.782896,-4.774104 A 0.71215913,0.71215913 0 0 0 68.846235,9.0945484 l -4.774105,4.7828956 -1.142972,-1.142971 6.066541,-7.3413936 4.571886,-0.01758 z"
       id="path242-3-6"
       style="fill:#d40000;stroke-width:0.52916666;stroke:#f2f2f2;stroke-dasharray:none" /></g></svg>
