<?xml version="1.0" encoding="UTF-8" standalone="no"?>
<!-- Created with Inkscape (http://www.inkscape.org/) -->

<svg
   width="100"
   height="100"
   viewBox="0 0 26.458334 26.458334"
   version="1.1"
   id="svg5"
   xml:space="preserve"
   inkscape:version="1.2.2 (b0a8486541, 2022-12-01)"
   sodipodi:docname="options-button.svg"
   inkscape:export-filename="../../common/assets/options-button.png"
   inkscape:export-xdpi="96"
   inkscape:export-ydpi="96"
   xmlns:inkscape="http://www.inkscape.org/namespaces/inkscape"
   xmlns:sodipodi="http://sodipodi.sourceforge.net/DTD/sodipodi-0.dtd"
   xmlns="http://www.w3.org/2000/svg"
   xmlns:svg="http://www.w3.org/2000/svg"><sodipodi:namedview
     id="namedview7"
     pagecolor="#ffffff"
     bordercolor="#666666"
     borderopacity="1.0"
     inkscape:showpageshadow="2"
     inkscape:pageopacity="0.0"
     inkscape:pagecheckerboard="0"
     inkscape:deskcolor="#d1d1d1"
     inkscape:document-units="mm"
     showgrid="false"
     inkscape:zoom="6.7277216"
     inkscape:cx="37.011044"
     inkscape:cy="69.637245"
     inkscape:window-width="3438"
     inkscape:window-height="1438"
     inkscape:window-x="1920"
     inkscape:window-y="0"
     inkscape:window-maximized="1"
     inkscape:current-layer="layer1" /><defs
     id="defs2" /><g
     inkscape:label="Camada 1"
     inkscape:groupmode="layer"
     id="layer1"><circle
       style="fill:#a40000;fill-opacity:0.641843;stroke:#ff1c1c;stroke-width:0.566596;stroke-dasharray:none;stroke-dashoffset:0;stroke-opacity:1;paint-order:fill markers stroke;stop-color:#000000"
       id="path234"
       cx="24.19474"
       cy="24.180811"
       r="23.990259" /><path
       d="m 7.6640673,17.611358 1.6792263,2.905065 a 0.83961413,0.83961413 0 0 0 1.1469134,0.306449 l 1.1721,-0.676728 c 0.486979,0.383705 1.025171,0.698556 1.591071,0.933652 v 1.341702 a 0.83961413,0.83961413 0 0 0 0.839613,0.839614 h 3.358455 a 0.83961413,0.83961413 0 0 0 0.839617,-0.839614 v -1.341702 a 6.7958366,6.7958366 0 0 0 1.591067,-0.933652 l 1.172103,0.676728 c 0.400497,0.230891 0.916018,0.09235 1.14691,-0.306449 l 1.679231,-2.905065 a 0.84297259,0.84297259 0 0 0 -0.306451,-1.146913 l -1.151958,-0.665811 a 6.4507553,6.4507553 0 0 0 -0.0017,-1.867304 l 1.151951,-0.665812 c 0.399657,-0.230892 0.538192,-0.74726 0.30645,-1.146913 l -1.6792,-2.9050679 A 0.83961413,0.83961413 0 0 0 21.052553,8.9070874 l -1.1721,0.6767284 A 6.7454599,6.7454599 0 0 0 18.290222,8.6501636 V 7.3084609 A 0.83961413,0.83961413 0 0 0 17.450609,6.4688478 H 14.092154 A 0.83961413,0.83961413 0 0 0 13.252536,7.3084609 V 8.6501636 A 6.7958366,6.7958366 0 0 0 11.661469,9.5838158 L 10.490207,8.9070874 A 0.83877452,0.83877452 0 0 0 9.3432936,9.2135371 L 7.6640673,12.118605 a 0.84297259,0.84297259 0 0 0 0.3064498,1.146913 l 1.1519528,0.665812 a 6.4507553,6.4507553 0 0 0 0,1.867304 l -1.1519494,0.665811 c -0.3996576,0.230891 -0.5381931,0.747256 -0.3064499,1.146913 z m 8.1073117,-6.104832 c 1.85219,0 3.35846,1.506267 3.35846,3.358456 0,1.852188 -1.50627,3.358454 -3.35846,3.358454 -1.852187,0 -3.358455,-1.506266 -3.358455,-3.358454 0,-1.852189 1.506268,-3.358456 3.358455,-3.358456 z"
       id="path11547"
       style="fill:#ffffff;stroke-width:0.839614" /></g></svg>
